<svg width="30" height="30" viewBox="0 0 30 30" fill="none" xmlns="http://www.w3.org/2000/svg">
<circle cx="15" cy="15" r="15" fill="#06C368" fill-opacity="0.2"/>
<path d="M10.06 18.5352C10.136 18.7184 10.2816 18.864 10.4648 18.94C10.5549 18.9784 10.6517 18.9988 10.7496 19H18.246C18.4448 19 18.6355 18.921 18.7761 18.7804C18.9167 18.6399 18.9957 18.4492 18.9957 18.2504C18.9957 18.0515 18.9167 17.8609 18.7761 17.7203C18.6355 17.5797 18.4448 17.5007 18.246 17.5007H12.5563L18.7783 11.2862C18.8485 11.2165 18.9043 11.1336 18.9423 11.0423C18.9804 10.9509 19 10.8529 19 10.754C19 10.655 18.9804 10.557 18.9423 10.4657C18.9043 10.3743 18.8485 10.2914 18.7783 10.2217C18.7086 10.1515 18.6257 10.0957 18.5343 10.0577C18.443 10.0196 18.345 10 18.246 10C18.1471 10 18.0491 10.0196 17.9577 10.0577C17.8664 10.0957 17.7835 10.1515 17.7138 10.2217L11.4993 16.4437V10.754C11.4993 10.5552 11.4203 10.3645 11.2797 10.2239C11.1391 10.0833 10.9485 10.0043 10.7496 10.0043C10.5508 10.0043 10.3601 10.0833 10.2196 10.2239C10.079 10.3645 10 10.5552 10 10.754V18.2504C10.0012 18.3483 10.0216 18.4451 10.06 18.5352Z" fill="#06C368"/>
</svg>
