<svg width="30" height="30" viewBox="0 0 30 30" fill="none" xmlns="http://www.w3.org/2000/svg">
<circle cx="15" cy="15" r="15" fill="#FF4747" fill-opacity="0.2"/>
<path d="M18.94 10.4648C18.864 10.2816 18.7184 10.136 18.5352 10.06C18.4451 10.0216 18.3483 10.0012 18.2504 10H10.754C10.5552 10 10.3645 10.079 10.2239 10.2196C10.0833 10.3601 10.0043 10.5508 10.0043 10.7496C10.0043 10.9485 10.0833 11.1391 10.2239 11.2797C10.3645 11.4203 10.5552 11.4993 10.754 11.4993H16.4437L10.2217 17.7138C10.1515 17.7835 10.0957 17.8664 10.0577 17.9577C10.0196 18.0491 10 18.1471 10 18.246C10 18.345 10.0196 18.443 10.0577 18.5343C10.0957 18.6257 10.1515 18.7086 10.2217 18.7783C10.2914 18.8485 10.3743 18.9043 10.4657 18.9423C10.557 18.9804 10.655 19 10.754 19C10.8529 19 10.9509 18.9804 11.0423 18.9423C11.1336 18.9043 11.2165 18.8485 11.2862 18.7783L17.5007 12.5563V18.246C17.5007 18.4448 17.5797 18.6355 17.7203 18.7761C17.8609 18.9167 18.0515 18.9957 18.2504 18.9957C18.4492 18.9957 18.6399 18.9167 18.7804 18.7761C18.921 18.6355 19 18.4448 19 18.246V10.7496C18.9988 10.6517 18.9784 10.5549 18.94 10.4648Z" fill="#FF4747"/>
</svg>
