<svg width="22" height="22" viewBox="0 0 22 22" fill="none" xmlns="http://www.w3.org/2000/svg">
<path opacity="0.6" d="M11.0032 -0.00317383C12.6648 -0.00221351 14.3046 0.375068 15.7996 1.10036C17.2946 1.82565 18.6059 2.88011 19.6351 4.18462C20.6644 5.48912 21.3848 7.00979 21.7423 8.6325C22.0998 10.2552 22.0852 11.9378 21.6995 13.5541C21.3138 15.1703 20.567 16.6782 19.5153 17.9646C18.4635 19.251 17.1341 20.2825 15.6267 20.9817C14.1193 21.6809 12.4732 22.0296 10.8118 22.0016C9.15037 21.9737 7.51688 21.5698 6.03387 20.8203L5.86745 20.7309L0.854122 21.9826C0.757639 22.0068 0.657041 22.0099 0.55927 21.9915C0.461499 21.9731 0.368883 21.9337 0.287813 21.876C0.206743 21.8183 0.13915 21.7438 0.0896977 21.6575C0.0402453 21.5711 0.0101112 21.4751 0.0013753 21.376V21.2632L0.0206311 21.1491L1.27224 16.1371L1.18559 15.9721C0.557751 14.7324 0.170397 13.3851 0.0440128 12.0013L0.00962774 11.4759L0 11C0 8.08178 1.15926 5.28308 3.22276 3.21958C5.28625 1.15609 8.08496 -0.00317383 11.0032 -0.00317383ZM11.6909 12.3754H7.56469L7.4409 12.3864C7.28234 12.4151 7.1389 12.4986 7.03561 12.6223C6.93231 12.7459 6.87573 12.902 6.87573 13.0631C6.87573 13.2242 6.93231 13.3803 7.03561 13.5039C7.1389 13.6276 7.28234 13.7111 7.4409 13.7398L7.56469 13.7508H11.6909L11.8147 13.7398C11.9732 13.7111 12.1167 13.6276 12.22 13.5039C12.3233 13.3803 12.3798 13.2242 12.3798 13.0631C12.3798 12.902 12.3233 12.7459 12.22 12.6223C12.1167 12.4986 11.9732 12.4151 11.8147 12.3864L11.6909 12.3754ZM14.4417 8.24921H7.56469L7.4409 8.26021C7.28234 8.28892 7.1389 8.3724 7.03561 8.49608C6.93231 8.61975 6.87573 8.77577 6.87573 8.93691C6.87573 9.09805 6.93231 9.25407 7.03561 9.37774C7.1389 9.50142 7.28234 9.5849 7.4409 9.6136L7.56469 9.62461H14.4417L14.5655 9.6136C14.724 9.5849 14.8675 9.50142 14.9708 9.37774C15.074 9.25407 15.1306 9.09805 15.1306 8.93691C15.1306 8.77577 15.074 8.61975 14.9708 8.49608C14.8675 8.3724 14.724 8.28892 14.5655 8.26021L14.4417 8.24921Z" fill="#CBCBCB"/>
</svg>
