<svg width="61" height="61" viewBox="0 0 61 61" fill="none" xmlns="http://www.w3.org/2000/svg">
<path d="M7.625 15.25H12.7083H53.375" stroke="white" stroke-width="4" stroke-linecap="round" stroke-linejoin="round"/>
<path d="M20.3333 15.2499V10.1666C20.3333 8.8184 20.8688 7.52544 21.8221 6.57213C22.7754 5.61882 24.0684 5.08325 25.4166 5.08325H35.5833C36.9314 5.08325 38.2244 5.61882 39.1777 6.57213C40.131 7.52544 40.6666 8.8184 40.6666 10.1666V15.2499M48.2916 15.2499V50.8333C48.2916 52.1814 47.756 53.4744 46.8027 54.4277C45.8494 55.381 44.5564 55.9166 43.2083 55.9166H17.7916C16.4434 55.9166 15.1504 55.381 14.1971 54.4277C13.2438 53.4744 12.7083 52.1814 12.7083 50.8333V15.2499H48.2916Z" stroke="white" stroke-width="4" stroke-linecap="round" stroke-linejoin="round"/>
<path d="M35.5833 27.9583V43.2083" stroke="white" stroke-width="4" stroke-linecap="round" stroke-linejoin="round"/>
<path d="M25.4167 27.9583V43.2083" stroke="white" stroke-width="4" stroke-linecap="round" stroke-linejoin="round"/>
</svg>
