<svg width="24" height="14" viewBox="0 0 24 14" fill="none" xmlns="http://www.w3.org/2000/svg">
<path d="M22.8 2.60001H1.2C0.88174 2.60001 0.576516 2.47358 0.351472 2.24854C0.126428 2.0235 0 1.71827 0 1.40001C0 1.08175 0.126428 0.776528 0.351472 0.551484C0.576516 0.32644 0.88174 0.200012 1.2 0.200012H22.8C23.1183 0.200012 23.4235 0.32644 23.6485 0.551484C23.8736 0.776528 24 1.08175 24 1.40001C24 1.71827 23.8736 2.0235 23.6485 2.24854C23.4235 2.47358 23.1183 2.60001 22.8 2.60001ZM18.8 8.20001H5.2C4.88174 8.20001 4.57652 8.07358 4.35147 7.84854C4.12643 7.6235 4 7.31827 4 7.00001C4 6.68175 4.12643 6.37653 4.35147 6.15148C4.57652 5.92644 4.88174 5.80001 5.2 5.80001H18.8C19.1183 5.80001 19.4235 5.92644 19.6485 6.15148C19.8736 6.37653 20 6.68175 20 7.00001C20 7.31827 19.8736 7.6235 19.6485 7.84854C19.4235 8.07358 19.1183 8.20001 18.8 8.20001ZM14 13.8H10C9.68174 13.8 9.37652 13.6736 9.15147 13.4485C8.92643 13.2235 8.8 12.9183 8.8 12.6C8.8 12.2818 8.92643 11.9765 9.15147 11.7515C9.37652 11.5264 9.68174 11.4 10 11.4H14C14.3183 11.4 14.6235 11.5264 14.8485 11.7515C15.0736 11.9765 15.2 12.2818 15.2 12.6C15.2 12.9183 15.0736 13.2235 14.8485 13.4485C14.6235 13.6736 14.3183 13.8 14 13.8Z" fill="white"/>
</svg>
