<svg width="19" height="20" viewBox="0 0 19 20" fill="none" xmlns="http://www.w3.org/2000/svg">
<path d="M0 18.6999V7.40059C0 7.0678 0.0745314 6.75278 0.223594 6.45552C0.372657 6.15826 0.578052 5.91343 0.839779 5.72104L7.8401 0.419768C8.2067 0.139842 8.62528 -0.00012207 9.09587 -0.00012207C9.56646 -0.00012207 9.98765 0.139842 10.3594 0.419768L17.3598 5.71974C17.6224 5.91213 17.8278 6.15739 17.976 6.45552C18.125 6.75278 18.1995 7.0678 18.1995 7.40059V18.6999C18.1995 19.0483 18.07 19.3521 17.8109 19.6112C17.5517 19.8703 17.248 19.9999 16.8996 19.9999H12.5005C12.2024 19.9999 11.9528 19.8993 11.7517 19.6983C11.5506 19.4964 11.4501 19.2468 11.4501 18.9495V12.75C11.4501 12.4527 11.3496 12.2035 11.1485 12.0025C10.9466 11.8005 10.697 11.6996 10.3997 11.6996H7.79981C7.50255 11.6996 7.25339 11.8005 7.05232 12.0025C6.8504 12.2035 6.74943 12.4527 6.74943 12.75V18.9508C6.74943 19.2481 6.6489 19.4972 6.44784 19.6983C6.24678 19.8993 5.99762 19.9999 5.70036 19.9999H1.29997C0.951576 19.9999 0.647817 19.8703 0.38869 19.6112C0.129563 19.3521 0 19.0483 0 18.6999Z" fill="url(#paint0_linear_7253_288)"/>
<defs>
<linearGradient id="paint0_linear_7253_288" x1="9.09977" y1="-0.00012207" x2="9.09977" y2="19.9999" gradientUnits="userSpaceOnUse">
<stop offset="0.21" stop-color="#38B2B2"/>
<stop offset="1" stop-color="#038D8D"/>
</linearGradient>
</defs>
</svg>
