<svg width="18" height="18" viewBox="0 0 18 18" fill="none" xmlns="http://www.w3.org/2000/svg">
<path d="M15.12 3.4576C14.3238 2.66111 13.2681 2.17685 12.1449 2.09289C11.0218 2.00893 9.90587 2.33085 9.00002 3.0001C8.04577 2.29033 6.85802 1.96849 5.67596 2.09938C4.49391 2.23028 3.40535 2.80419 2.6295 3.70554C1.85365 4.6069 1.44814 5.76874 1.49462 6.95712C1.54111 8.14549 2.03614 9.27211 2.88002 10.1101L8.46752 15.6976C8.53725 15.7679 8.6202 15.8237 8.71159 15.8618C8.80299 15.8998 8.90101 15.9195 9.00002 15.9195C9.09903 15.9195 9.19706 15.8998 9.28846 15.8618C9.37985 15.8237 9.4628 15.7679 9.53252 15.6976L15.12 10.1101C15.557 9.6734 15.9037 9.15486 16.1402 8.58413C16.3767 8.0134 16.4984 7.40165 16.4984 6.78385C16.4984 6.16606 16.3767 5.55431 16.1402 4.98358C15.9037 4.41285 15.557 3.89431 15.12 3.4576ZM14.0625 9.0526L9.00002 14.1076L3.93752 9.0526C3.4914 8.60463 3.1875 8.03489 3.06395 7.41486C2.94039 6.79483 3.00267 6.15212 3.24299 5.56735C3.4833 4.98258 3.89095 4.4818 4.41478 4.12782C4.93862 3.77384 5.55532 3.58243 6.18752 3.5776C7.03211 3.57967 7.84135 3.91686 8.43752 4.5151C8.50725 4.5854 8.5902 4.6412 8.68159 4.67927C8.77299 4.71735 8.87101 4.73695 8.97002 4.73695C9.06903 4.73695 9.16706 4.71735 9.25846 4.67927C9.34985 4.6412 9.4328 4.5854 9.50252 4.5151C10.1163 3.98327 10.9091 3.70446 11.7207 3.73512C12.5322 3.76578 13.3018 4.10362 13.8737 4.68025C14.4455 5.25688 14.777 6.02923 14.8009 6.841C14.8248 7.65276 14.5394 8.4433 14.0025 9.0526H14.0625Z" fill="#35B4B4"/>
</svg>
