<svg width="19" height="20" viewBox="0 0 19 20" fill="none" xmlns="http://www.w3.org/2000/svg">
<path opacity="0.6" d="M0 18.7V7.40071C0 7.06792 0.0745314 6.7529 0.223594 6.45564C0.372657 6.15838 0.578052 5.91355 0.839779 5.72116L7.8401 0.41989C8.20669 0.139964 8.62528 0 9.09587 0C9.56646 0 9.98765 0.139964 10.3594 0.41989L17.3598 5.71986C17.6224 5.91225 17.8278 6.15751 17.976 6.45564C18.125 6.7529 18.1995 7.06792 18.1995 7.40071V18.7C18.1995 19.0484 18.07 19.3522 17.8109 19.6113C17.5517 19.8704 17.248 20 16.8996 20H12.5005C12.2024 20 11.9528 19.8995 11.7517 19.6984C11.5506 19.4965 11.4501 19.2469 11.4501 18.9496V12.7501C11.4501 12.4528 11.3496 12.2037 11.1485 12.0026C10.9466 11.8007 10.697 11.6997 10.3997 11.6997H7.79981C7.50255 11.6997 7.25339 11.8007 7.05232 12.0026C6.8504 12.2037 6.74943 12.4528 6.74943 12.7501V18.9509C6.74943 19.2482 6.6489 19.4973 6.44784 19.6984C6.24678 19.8995 5.99762 20 5.70036 20H1.29997C0.951576 20 0.647817 19.8704 0.38869 19.6113C0.129563 19.3522 0 19.0484 0 18.7Z" fill="#CBCBCB"/>
</svg>
