<svg width="23" height="20" viewBox="0 0 23 20" fill="none" xmlns="http://www.w3.org/2000/svg">
<path d="M22.9997 6.04047C23.0064 8.23524 22.0853 10.3412 20.4399 11.8883L12.1832 19.7552H12.1843C11.8382 20.0816 11.2787 20.0816 10.9337 19.7552L2.67702 11.9438C0.986312 10.3944 0.022108 8.26756 0 6.04047C0.00331733 4.44409 0.675611 2.91354 1.86874 1.78366C3.06297 0.6549 4.68067 0.0188548 6.36818 0.0156947C8.05556 0.0125563 9.67674 0.642313 10.8753 1.76692L11.5 2.35797L12.1248 1.76692C13.3201 0.635001 14.9433 -0.00104317 16.6341 1.28429e-06C18.3259 0.00104734 19.9469 0.638135 21.1412 1.7711C22.3354 2.9051 23.0044 4.44082 23 6.04023L22.9997 6.04047Z" fill="#FF4747"/>
</svg>
