<svg width="18" height="18" viewBox="0 0 18 18" fill="none" xmlns="http://www.w3.org/2000/svg">
<g clip-path="url(#clip0_7032_3623)">
<path fill-rule="evenodd" clip-rule="evenodd" d="M6.98853 10.159L10.7502 10.7748C11.5388 10.9039 11.9408 11.7947 11.6934 12.4657C11.9354 12.3722 12.1848 12.231 12.4543 12.0542L14.803 10.5133C15.3153 10.157 15.9566 10.1919 16.4016 10.4138C17.0429 10.7338 17.2674 11.4344 16.5784 11.9299L12.0294 15.2C11.6247 15.4992 11.1145 15.6195 10.6184 15.5314L7.20942 14.9734C6.85449 14.9089 6.48813 14.9949 6.19773 15.2101L6.00547 15.3486L6.29184 15.7473C6.33419 15.8057 6.351 15.8784 6.3389 15.949C6.32613 16.0202 6.28579 16.0827 6.22664 16.1237L5.02874 16.952C4.92118 17.0273 4.77463 17.0125 4.68321 16.9177L1.07535 13.1602C1.02023 13.1031 0.993341 13.0251 1.00141 12.9464C1.01015 12.8677 1.0525 12.7965 1.1177 12.7521L2.89969 11.4835C2.95952 11.4411 3.03346 11.425 3.10472 11.4384C3.17597 11.4519 3.23916 11.4935 3.27949 11.554L3.5578 11.9413L5.5771 10.4898V10.4904C5.98179 10.1906 6.492 10.0709 6.9881 10.159L6.98853 10.159ZM10.747 5.9006C10.6435 5.79505 10.6441 5.62629 10.749 5.52209C10.8539 5.4179 11.0226 5.41789 11.1275 5.52209L11.5678 5.96313L12.6406 4.89012V4.88944C12.7462 4.78725 12.9142 4.7886 13.0184 4.89213C13.1226 4.99634 13.1233 5.16441 13.0211 5.26997L11.7587 6.53257L11.758 6.53189V6.53257C11.7076 6.58232 11.639 6.61055 11.5678 6.61055C11.4965 6.61055 11.428 6.58232 11.3782 6.53189L10.747 5.9006ZM11.8844 3.30877C10.9124 3.30877 10.0365 3.89368 9.66478 4.79189C9.29237 5.68942 9.49807 6.7235 10.1851 7.41057C10.8728 8.09768 11.906 8.3034 12.8034 7.93094C13.7015 7.55914 14.287 6.68313 14.287 5.71156C14.2864 4.38442 13.2107 3.30877 11.8844 3.30877ZM11.8844 3.84662C11.1302 3.84662 10.4499 4.30043 10.1614 4.99762C9.87238 5.69481 10.0324 6.49687 10.5655 7.03009C11.0985 7.56324 11.9012 7.72323 12.5977 7.43415C13.2948 7.14573 13.7492 6.46602 13.7492 5.71166C13.7492 5.21684 13.5522 4.74219 13.2027 4.39258C12.8531 4.04297 12.3785 3.84662 11.8844 3.84662ZM16.0576 6.16738L16.0569 5.25572H15.3396C15.2052 5.25572 15.0916 5.15622 15.0734 5.02309C14.9894 4.63248 14.8334 4.26136 14.615 3.92722C14.5451 3.82099 14.5598 3.68048 14.6492 3.5904L15.1568 3.08281L14.5128 2.43806L14.0053 2.94565C13.9118 3.03843 13.7653 3.05053 13.6584 2.97321C13.3505 2.76277 12.9216 2.59404 12.5546 2.51739H12.5539C12.4296 2.49185 12.3408 2.38226 12.3408 2.2552H12.3401V1.53784H11.4286V2.2552C11.4286 2.38966 11.3291 2.50328 11.196 2.52144C10.8061 2.60548 10.4344 2.76078 10.1003 2.97996C9.99406 3.04988 9.85357 3.03509 9.7635 2.945L9.25597 2.43741L8.6113 3.08216L9.11883 3.58975C9.21227 3.6832 9.2237 3.82976 9.14706 3.93666C8.93665 4.24458 8.76793 4.6735 8.6913 5.0406V5.04127C8.66576 5.16565 8.55551 5.2544 8.42847 5.2544V5.25507H7.7112V6.16606H8.42847V6.16673C8.56291 6.16673 8.67652 6.26556 8.69467 6.39868C8.7787 6.78929 8.93465 7.16109 9.15381 7.49523C9.22305 7.60145 9.20826 7.74197 9.11885 7.83205L8.61133 8.33964L9.25599 8.98439L9.76352 8.4768H9.76285C9.85629 8.38335 10.0028 8.37124 10.1097 8.44856C10.4176 8.659 10.8465 8.82774 11.2135 8.90438H11.2142C11.3385 8.92993 11.428 9.03952 11.428 9.16658H11.4286V9.88394H12.3395V9.16725C12.3395 9.03279 12.4383 8.91917 12.5714 8.90034C12.962 8.81697 13.3337 8.661 13.6678 8.44181C13.774 8.37257 13.9145 8.38736 14.0046 8.47678L14.5121 8.98437L15.1568 8.33962L14.6493 7.83203V7.8327C14.5558 7.73925 14.5437 7.59202 14.621 7.48512C14.8315 7.17719 15.0002 6.74827 15.0768 6.38118C15.1023 6.2568 15.2126 6.16738 15.3396 6.16738V6.16671L16.0576 6.16738ZM16.5947 4.98679C16.5947 4.91553 16.5665 4.84695 16.516 4.79652C16.4656 4.74609 16.397 4.71786 16.3258 4.71786H15.5507C15.466 4.40389 15.341 4.1027 15.1797 3.82033L15.7275 3.2724C15.8324 3.16752 15.8324 2.99741 15.7275 2.89188L14.7031 1.86728C14.5975 1.7624 14.4274 1.7624 14.3226 1.86728L13.7747 2.41521C13.4931 2.25318 13.1912 2.1288 12.878 2.0441V1.26893C12.878 1.19767 12.8491 1.12909 12.7986 1.07866C12.7482 1.02824 12.6803 1 12.6091 1H11.1597C11.0112 1 10.8909 1.12034 10.8909 1.26892V2.0441C10.5769 2.12881 10.2758 2.25318 9.99345 2.41521L9.44558 1.86727C9.34071 1.76239 9.17063 1.76239 9.06511 1.86727L8.04064 2.89187C7.93577 2.99675 7.93577 3.16752 8.04064 3.27239L8.5885 3.82033H8.58918C8.42717 4.10202 8.30213 4.40389 8.21743 4.71718H7.44235C7.29379 4.71718 7.17346 4.83753 7.17346 4.98611V6.43562C7.17346 6.50688 7.2017 6.57546 7.25211 6.62589C7.30253 6.67631 7.3711 6.70455 7.44236 6.70455H8.21743C8.30213 7.01851 8.42718 7.31971 8.58918 7.6014L8.04065 8.15001C7.93578 8.25489 7.93578 8.42499 8.04065 8.52986L9.06511 9.55446C9.17065 9.66001 9.34073 9.66001 9.44559 9.55446L9.99345 9.00653C10.2758 9.16855 10.5769 9.29361 10.8909 9.37832V10.1535C10.8909 10.2248 10.9191 10.2933 10.9695 10.3438C11.0199 10.3942 11.0885 10.4224 11.1598 10.4224H12.6084C12.6797 10.4224 12.7482 10.3942 12.7987 10.3438C12.8491 10.2933 12.8773 10.2248 12.8773 10.1535V9.37832C13.1912 9.29361 13.4931 9.16855 13.7747 9.00653L14.3226 9.55446V9.55513C14.4275 9.66002 14.5975 9.66002 14.7024 9.55513L15.7275 8.52986C15.8324 8.42498 15.8324 8.25488 15.7275 8.15001L15.1797 7.60208C15.341 7.31971 15.466 7.01852 15.5507 6.70455H16.3258C16.3971 6.70455 16.4656 6.67631 16.516 6.62589C16.5665 6.57546 16.5947 6.50689 16.5947 6.43562L16.5947 4.98679ZM5.41485 15.4433L2.99424 12.075L1.67736 13.0122L4.91282 16.3811L5.69865 15.8379L5.41485 15.4433ZM8.86732 12.8024V12.803C8.72279 12.7782 8.62464 12.641 8.64885 12.4958C8.67238 12.3506 8.80817 12.2517 8.95337 12.2739L10.7536 12.5684C10.9573 12.5623 11.0897 12.4743 11.1583 12.3499C11.3505 12.0037 11.1401 11.3824 10.6635 11.3044L6.90181 10.6879C6.54688 10.6241 6.18052 10.7095 5.89079 10.9253L3.87148 12.3768L5.69323 14.9134C5.98902 14.7009 6.18731 14.551 6.55703 14.4643V14.4636C6.79971 14.4085 7.05045 14.4011 7.29581 14.4434L10.7047 15.0014C11.0603 15.0653 11.426 14.9799 11.7164 14.7648L16.2661 11.4947C16.4826 11.3387 16.5155 11.2002 16.3771 11.0489C16.3152 10.9851 16.2426 10.9326 16.1626 10.8943C15.8668 10.7471 15.4447 10.7208 15.1119 10.9508H15.1126C15.1045 10.9568 15.0971 10.9629 15.0891 10.9683L12.749 12.5038C12.0896 12.9368 11.4698 13.2245 10.6893 13.1015L8.86732 12.8024Z" fill="#35B4B4"/>
<path d="M10.7477 5.9006H10.747M10.747 5.9006C10.6435 5.79505 10.6441 5.62629 10.749 5.52209C10.8539 5.4179 11.0226 5.41789 11.1275 5.52209L11.5678 5.96313L12.6406 4.89012V4.88944C12.7462 4.78725 12.9142 4.7886 13.0184 4.89213C13.1226 4.99634 13.1233 5.16441 13.0211 5.26997L11.7587 6.53257L11.758 6.53189V6.53257C11.7076 6.58232 11.639 6.61055 11.5678 6.61055C11.4965 6.61055 11.428 6.58232 11.3782 6.53189L10.747 5.9006ZM16.5954 4.98746L16.5947 4.98679M16.5947 4.98679C16.5947 4.91553 16.5665 4.84695 16.516 4.79652C16.4656 4.74609 16.3971 4.71786 16.3258 4.71786H15.5507C15.466 4.40389 15.341 4.1027 15.1797 3.82033L15.7275 3.2724C15.8324 3.16752 15.8324 2.99741 15.7275 2.89188L14.7031 1.86728C14.5975 1.7624 14.4274 1.7624 14.3226 1.86728L13.7747 2.41521C13.4931 2.25318 13.1912 2.1288 12.878 2.0441V1.26893C12.878 1.19767 12.8491 1.12909 12.7986 1.07866C12.7482 1.02824 12.6803 1 12.6091 1H11.1597C11.0112 1 10.8909 1.12034 10.8909 1.26892V2.0441C10.5769 2.12881 10.2758 2.25318 9.99345 2.41521L9.44558 1.86727C9.34071 1.76239 9.17063 1.76239 9.06511 1.86727L8.04064 2.89187C7.93577 2.99675 7.93577 3.16752 8.04064 3.27239L8.5885 3.82033H8.58918C8.42717 4.10202 8.30213 4.40389 8.21743 4.71718H7.44235C7.29379 4.71718 7.17346 4.83753 7.17346 4.98611V6.43562C7.17346 6.50688 7.2017 6.57546 7.25211 6.62589C7.30253 6.67631 7.3711 6.70455 7.44236 6.70455H8.21743C8.30213 7.01851 8.42718 7.31971 8.58918 7.6014L8.04065 8.15001C7.93578 8.25489 7.93578 8.42499 8.04065 8.52986L9.06511 9.55446C9.17065 9.66001 9.34073 9.66001 9.44559 9.55446L9.99345 9.00653C10.2758 9.16855 10.5769 9.29361 10.8909 9.37832V10.1535C10.8909 10.2248 10.9191 10.2933 10.9695 10.3438C11.0199 10.3942 11.0885 10.4224 11.1598 10.4224H12.6084C12.6797 10.4224 12.7482 10.3942 12.7987 10.3438C12.8491 10.2933 12.8773 10.2248 12.8773 10.1535V9.37832C13.1912 9.29361 13.4931 9.16855 13.7747 9.00653L14.3226 9.55446V9.55513C14.4275 9.66002 14.5975 9.66002 14.7024 9.55513L15.7275 8.52986C15.8324 8.42498 15.8324 8.25488 15.7275 8.15001L15.1797 7.60208C15.341 7.31971 15.466 7.01852 15.5507 6.70455H16.3258C16.3971 6.70455 16.4656 6.67631 16.516 6.62589C16.5665 6.57546 16.5947 6.50689 16.5947 6.43562L16.5947 4.98679ZM6.98853 10.159L10.7502 10.7748C11.5388 10.9039 11.9408 11.7947 11.6934 12.4657C11.9354 12.3722 12.1848 12.231 12.4543 12.0542L14.803 10.5133C15.3153 10.157 15.9566 10.1919 16.4016 10.4138C17.0429 10.7338 17.2674 11.4344 16.5784 11.9299L12.0293 15.2C11.6247 15.4992 11.1145 15.6195 10.6184 15.5314L7.20942 14.9734C6.85449 14.9089 6.48813 14.9949 6.19773 15.2101L6.00547 15.3486L6.29184 15.7473C6.33419 15.8057 6.351 15.8784 6.3389 15.949C6.32613 16.0202 6.28579 16.0827 6.22664 16.1237L5.02874 16.952C4.92118 17.0273 4.77463 17.0125 4.68321 16.9177L1.07535 13.1602C1.02023 13.1031 0.993341 13.0251 1.00141 12.9464C1.01015 12.8677 1.0525 12.7965 1.1177 12.7521L2.89969 11.4835C2.95952 11.4411 3.03346 11.425 3.10472 11.4384C3.17597 11.4519 3.23916 11.4935 3.27949 11.554L3.5578 11.9413L5.5771 10.4898V10.4904C5.98179 10.1906 6.492 10.0709 6.9881 10.159L6.98853 10.159ZM11.8844 3.30877C10.9124 3.30877 10.0365 3.89368 9.66478 4.79189C9.29236 5.68942 9.49807 6.7235 10.1851 7.41057C10.8728 8.09768 11.906 8.3034 12.8034 7.93094C13.7015 7.55914 14.287 6.68313 14.287 5.71155C14.2864 4.38442 13.2107 3.30877 11.8844 3.30877ZM11.8844 3.84662C11.1302 3.84662 10.4499 4.30043 10.1614 4.99762C9.87238 5.69481 10.0324 6.49687 10.5655 7.03009C11.0985 7.56324 11.9012 7.72323 12.5977 7.43415C13.2948 7.14573 13.7492 6.46602 13.7492 5.71166C13.7492 5.21684 13.5522 4.74219 13.2027 4.39258C12.8531 4.04297 12.3785 3.84662 11.8844 3.84662ZM16.0576 6.16738L16.0569 5.25572H15.3396C15.2052 5.25572 15.0916 5.15622 15.0734 5.02309C14.9894 4.63248 14.8334 4.26136 14.615 3.92722C14.5451 3.82099 14.5598 3.68048 14.6492 3.5904L15.1568 3.08281L14.5128 2.43806L14.0053 2.94565C13.9118 3.03843 13.7653 3.05053 13.6584 2.97321C13.3505 2.76277 12.9216 2.59404 12.5546 2.51739H12.5539C12.4296 2.49185 12.3408 2.38226 12.3408 2.2552H12.3401V1.53784H11.4286V2.2552C11.4286 2.38966 11.3291 2.50328 11.196 2.52144C10.8061 2.60548 10.4344 2.76078 10.1003 2.97996C9.99406 3.04988 9.85357 3.03509 9.7635 2.945L9.25597 2.43741L8.6113 3.08216L9.11883 3.58975C9.21227 3.6832 9.2237 3.82976 9.14706 3.93666C8.93665 4.24458 8.76793 4.6735 8.6913 5.0406V5.04127C8.66576 5.16565 8.55551 5.2544 8.42847 5.2544V5.25507H7.7112V6.16606H8.42847V6.16673C8.56291 6.16673 8.67652 6.26556 8.69467 6.39869C8.7787 6.78929 8.93465 7.16109 9.15381 7.49523C9.22305 7.60145 9.20826 7.74197 9.11885 7.83205L8.61133 8.33964L9.25599 8.98439L9.76352 8.4768H9.76285C9.85629 8.38335 10.0028 8.37124 10.1097 8.44856C10.4176 8.659 10.8465 8.82774 11.2135 8.90438H11.2142C11.3385 8.92993 11.428 9.03952 11.428 9.16658H11.4286V9.88394H12.3395V9.16725C12.3395 9.03279 12.4383 8.91917 12.5714 8.90034C12.962 8.81697 13.3337 8.661 13.6678 8.44181C13.774 8.37257 13.9145 8.38736 14.0046 8.47678L14.5121 8.98437L15.1568 8.33962L14.6493 7.83203V7.8327C14.5558 7.73925 14.5437 7.59202 14.621 7.48512C14.8315 7.17719 15.0002 6.74827 15.0768 6.38118C15.1023 6.2568 15.2126 6.16738 15.3396 6.16738V6.16671L16.0576 6.16738ZM5.41485 15.4433L2.99424 12.075L1.67736 13.0122L4.91282 16.3811L5.69865 15.8379L5.41485 15.4433ZM8.86732 12.8024V12.803C8.72279 12.7782 8.62464 12.641 8.64885 12.4958C8.67238 12.3506 8.80817 12.2517 8.95337 12.2739L10.7536 12.5684C10.9573 12.5623 11.0897 12.4743 11.1583 12.3499C11.3505 12.0037 11.1401 11.3824 10.6635 11.3044L6.90181 10.6879C6.54688 10.6241 6.18052 10.7095 5.89079 10.9253L3.87148 12.3768L5.69323 14.9134C5.98902 14.7009 6.18731 14.551 6.55703 14.4643V14.4636C6.79971 14.4085 7.05045 14.4011 7.29581 14.4434L10.7047 15.0014C11.0603 15.0653 11.426 14.9799 11.7164 14.7648L16.2661 11.4947C16.4826 11.3387 16.5155 11.2002 16.3771 11.0489C16.3152 10.9851 16.2426 10.9326 16.1626 10.8943C15.8668 10.7471 15.4447 10.7208 15.1119 10.9508H15.1126C15.1045 10.9568 15.0971 10.9629 15.0891 10.9683L12.749 12.5038C12.0895 12.9368 11.4698 13.2245 10.6893 13.1015L8.86732 12.8024Z" stroke="#35B4B4" stroke-width="0.5"/>
</g>
<defs>
<clipPath id="clip0_7032_3623">
<rect width="18" height="18" fill="white"/>
</clipPath>
</defs>
</svg>
