<svg width="18" height="18" viewBox="0 0 18 18" fill="none" xmlns="http://www.w3.org/2000/svg">
<path d="M5.91574 17H4.28909C3.63967 16.9993 3.113 16.4836 3.11231 15.8469V11.078C3.113 10.4413 3.63967 9.92493 4.28909 9.92425H5.91574C6.33816 9.92425 6.72769 10.1468 6.93685 10.5065C7.66171 9.93233 8.08415 9.06836 8.08621 8.15535V7.30416C8.08621 7.16095 8.14381 7.02447 8.24736 6.92362C8.35023 6.82277 8.48944 6.7663 8.63482 6.7663H9.53318C10.5063 6.76697 11.2949 7.54016 11.2963 8.4942V9.853H13.071V9.85368C13.6299 9.83821 14.1539 10.1186 14.4432 10.5872C14.7333 11.0558 14.7436 11.6408 14.4714 12.1195C14.8993 12.4482 15.1215 12.9713 15.0591 13.5004C14.9967 14.0302 14.6579 14.4895 14.1648 14.714C14.3651 15.1793 14.3136 15.7118 14.0284 16.132C13.7424 16.5522 13.2603 16.8037 12.7453 16.8016H8.36933C7.86597 16.8016 7.3729 16.6625 6.94703 16.4003C6.74061 16.77 6.34571 17 5.91574 17ZM4.28909 11.0001C4.26783 11.0001 4.24794 11.0081 4.23286 11.0229C4.21777 11.0377 4.20954 11.0572 4.20954 11.078V15.847C4.20954 15.8671 4.21777 15.8873 4.23286 15.9021C4.24794 15.9162 4.26783 15.9243 4.28909 15.9243H5.91574C5.93631 15.9243 5.95688 15.9162 5.97128 15.9021C5.98637 15.8873 5.9946 15.8671 5.9946 15.847V11.078C5.9946 11.0572 5.98637 11.0377 5.97128 11.0229C5.95688 11.0081 5.93631 11.0001 5.91574 11.0001H4.28909ZM7.09187 15.2371C7.45601 15.502 7.88324 15.6708 8.33243 15.7273L12.7372 15.7259C12.9813 15.7226 13.1774 15.5296 13.1809 15.2909C13.1843 15.0522 12.993 14.8539 12.7495 14.8445H12.2654C11.991 14.8398 11.7627 14.6381 11.7291 14.3712C11.6962 14.1042 11.8676 13.8541 12.1323 13.7849C12.491 13.7479 13.1678 13.7782 13.5368 13.7694V13.7687C13.7816 13.764 13.9777 13.5677 13.9777 13.3277C13.9777 13.087 13.7816 12.8907 13.5368 12.886C13.2865 12.886 12.5301 12.8866 12.2674 12.8866C11.967 12.8833 11.725 12.6439 11.7243 12.3494C11.7236 12.0549 11.965 11.8149 12.2653 11.8102H13.1376C13.2597 11.8048 13.3749 11.751 13.4558 11.661C13.5368 11.5715 13.5772 11.4525 13.5669 11.3329C13.5573 11.2132 13.4984 11.1029 13.4037 11.0269C13.3091 10.9503 13.187 10.9153 13.065 10.9295H10.7471H10.7478C10.6024 10.9295 10.4625 10.873 10.3596 10.7715C10.2567 10.6706 10.1991 10.5341 10.1991 10.3916V8.49431C10.1985 8.13462 9.90083 7.84214 9.53325 7.84214H9.18351C9.23425 8.61265 9.06487 9.3818 8.69593 10.0642C8.32629 10.746 7.77151 11.3148 7.09191 11.7054L7.09187 15.2371ZM13.4523 8.16215C13.2082 8.16013 12.9771 8.05323 12.8193 7.86968C12.6623 7.68613 12.5944 7.44475 12.6342 7.20809L12.7576 6.50212C12.4017 6.15385 11.7996 5.73968 12.0238 5.16551C12.1919 4.56846 12.9188 4.58595 13.4187 4.50729C13.6505 4.06422 13.8549 3.38381 14.4871 3.41002C15.1194 3.38111 15.3265 4.06422 15.5569 4.50729C16.0589 4.58595 16.7831 4.56713 16.9518 5.16551C17.174 5.74574 16.576 6.14982 16.218 6.50145C16.2962 6.99361 16.5383 7.66258 16.0109 8.00548C15.524 8.39141 14.9343 7.95842 14.4885 7.73386C14.2402 7.84412 13.7342 8.18769 13.4523 8.16215ZM13.3851 5.59911C13.7122 5.80485 13.896 6.17127 13.8617 6.55047L13.8062 6.86984V6.87051C14.1058 6.62847 14.5173 6.56997 14.8753 6.71856L15.1688 6.87051V6.86984C15.0268 6.51551 15.0975 6.11346 15.3526 5.82636L15.5899 5.59911C15.2024 5.62197 14.8348 5.4317 14.6346 5.10628L14.4878 4.81449L14.3404 5.10628C14.1402 5.43236 13.7719 5.62197 13.3851 5.59911ZM5.54798 8.16202C5.26888 8.18824 4.75797 7.84265 4.51315 7.73374C4.06534 7.9583 3.47901 8.39128 2.99074 8.00536C2.46338 7.6638 2.70545 6.99214 2.78363 6.50132C2.42704 6.15373 1.82493 5.73956 2.04848 5.16538C2.2165 4.56833 2.94342 4.58582 3.44334 4.50716L3.76703 3.86507C3.90967 3.59007 4.19838 3.41661 4.51315 3.41661C4.82861 3.41661 5.11663 3.59074 5.25927 3.86574L5.58226 4.50783C6.08425 4.5865 6.80843 4.56767 6.97712 5.16605C7.19931 5.74629 6.60132 6.15037 6.24334 6.502L6.36678 7.20863L6.3661 7.20796C6.40587 7.44462 6.33798 7.68599 6.18093 7.86955C6.02321 8.0531 5.79212 8.16001 5.54798 8.16202ZM4.51247 6.62437C4.75728 6.64925 4.99183 6.73396 5.19412 6.87045C5.05285 6.51545 5.12349 6.1134 5.37791 5.8263L5.6152 5.59905C5.22843 5.62191 4.86016 5.43164 4.65992 5.10622L4.51248 4.81443L4.36572 5.10622C4.16617 5.43163 3.7979 5.62191 3.41044 5.59905C3.73825 5.80479 3.92204 6.17122 3.88775 6.55041L3.8322 6.86978H3.83152C4.0345 6.73397 4.26834 6.64926 4.51247 6.62437ZM8.30402 6.3245C8.04686 6.32182 7.80271 6.20953 7.63744 6.01589C7.47149 5.82293 7.40016 5.56811 7.442 5.31867L7.59218 4.45942C7.21089 4.06879 6.48397 3.61159 6.7336 2.97086C6.92081 2.30523 7.7746 2.35969 8.32048 2.26153C8.58656 1.7808 8.79503 0.969964 9.50002 1.00089C10.2036 0.969295 10.4148 1.78283 10.6796 2.26153C11.2275 2.36037 12.0785 2.30524 12.2664 2.97153C12.5147 3.61765 11.7905 4.06611 11.4079 4.46009C11.4812 4.99662 11.796 5.78393 11.2104 6.1591C10.6652 6.5894 9.99584 6.05287 9.50004 5.81889C9.22983 5.9352 8.60919 6.35275 8.30402 6.3245ZM9.50001 4.71491C9.77363 4.69272 10.1631 4.95627 10.4004 5.06789L10.3065 4.52935C10.1899 4.04325 10.6391 3.68152 10.9573 3.38771L10.4052 3.30905C9.89776 3.26669 9.68652 2.73756 9.50001 2.34962L9.25314 2.83976C9.05564 3.30032 8.47616 3.33394 8.04208 3.38772L8.44187 3.76893C8.82659 4.09703 8.68053 4.64568 8.5996 5.06723V5.06791C8.87049 4.88771 9.1777 4.76735 9.50001 4.71491Z" fill="#35B4B4"/>
</svg>
