<svg width="24" height="17" viewBox="0 0 24 17" fill="none" xmlns="http://www.w3.org/2000/svg">
<path opacity="0.6" fill-rule="evenodd" clip-rule="evenodd" d="M8.54533e-07 2.12488C8.54533e-07 0.950745 0.960001 -0.00012207 2.14286 -0.00012207H21.8571C23.04 -0.00012207 24 0.951878 24 2.12488V5.55434C24.0001 5.70364 23.9605 5.85033 23.8853 5.97965C23.8101 6.10897 23.7018 6.21636 23.5714 6.29101C23.18 6.51452 22.8549 6.83638 22.6288 7.22416C22.4027 7.61194 22.2837 8.05196 22.2837 8.49988C22.2837 8.9478 22.4027 9.38781 22.6288 9.7756C22.8549 10.1634 23.18 10.4852 23.5714 10.7087C23.7018 10.7834 23.8101 10.8908 23.8853 11.0201C23.9605 11.1494 24.0001 11.2961 24 11.4454V14.8749C24 16.0479 23.04 16.9999 21.8571 16.9999H2.14286C1.57454 16.9999 1.02949 16.776 0.627629 16.3775C0.225766 15.979 8.54533e-07 15.4385 8.54533e-07 14.8749V11.4454C-0.000211547 11.2962 0.0391753 11.1496 0.114204 11.0203C0.189232 10.891 0.297259 10.7835 0.427429 10.7087C0.818865 10.4852 1.14399 10.1634 1.37006 9.7756C1.59614 9.38781 1.71517 8.9478 1.71517 8.49988C1.71517 8.05196 1.59614 7.61194 1.37006 7.22416C1.14399 6.83638 0.818865 6.51452 0.427429 6.29101C0.297259 6.21622 0.189232 6.10877 0.114204 5.97946C0.0391753 5.85015 -0.000211547 5.70353 8.54533e-07 5.55434V2.12488ZM17.1429 0.849878C17.3702 0.849878 17.5882 0.939431 17.7489 1.09884C17.9097 1.25824 18 1.47444 18 1.69988V2.54988C18 2.77531 17.9097 2.99151 17.7489 3.15092C17.5882 3.31032 17.3702 3.39988 17.1429 3.39988C16.9155 3.39988 16.6975 3.31032 16.5368 3.15092C16.376 2.99151 16.2857 2.77531 16.2857 2.54988V1.69988C16.2857 1.47444 16.376 1.25824 16.5368 1.09884C16.6975 0.939431 16.9155 0.849878 17.1429 0.849878ZM18 5.94988C18 5.72444 17.9097 5.50824 17.7489 5.34884C17.5882 5.18943 17.3702 5.09988 17.1429 5.09988C16.9155 5.09988 16.6975 5.18943 16.5368 5.34884C16.376 5.50824 16.2857 5.72444 16.2857 5.94988V6.79988C16.2857 7.02531 16.376 7.24151 16.5368 7.40092C16.6975 7.56032 16.9155 7.64988 17.1429 7.64988C17.3702 7.64988 17.5882 7.56032 17.7489 7.40092C17.9097 7.24151 18 7.02531 18 6.79988V5.94988ZM17.1429 9.34988C17.3702 9.34988 17.5882 9.43943 17.7489 9.59884C17.9097 9.75824 18 9.97444 18 10.1999V11.0499C18 11.2753 17.9097 11.4915 17.7489 11.6509C17.5882 11.8103 17.3702 11.8999 17.1429 11.8999C16.9155 11.8999 16.6975 11.8103 16.5368 11.6509C16.376 11.4915 16.2857 11.2753 16.2857 11.0499V10.1999C16.2857 9.97444 16.376 9.75824 16.5368 9.59884C16.6975 9.43943 16.9155 9.34988 17.1429 9.34988ZM18 14.4499C18 14.2244 17.9097 14.0082 17.7489 13.8488C17.5882 13.6894 17.3702 13.5999 17.1429 13.5999C16.9155 13.5999 16.6975 13.6894 16.5368 13.8488C16.376 14.0082 16.2857 14.2244 16.2857 14.4499V15.2999C16.2857 15.5253 16.376 15.7415 16.5368 15.9009C16.6975 16.0603 16.9155 16.1499 17.1429 16.1499C17.3702 16.1499 17.5882 16.0603 17.7489 15.9009C17.9097 15.7415 18 15.5253 18 15.2999V14.4499ZM5.14286 8.49988C5.14286 8.27444 5.23316 8.05824 5.39391 7.89884C5.55466 7.73943 5.77267 7.64988 6 7.64988H12C12.2273 7.64988 12.4453 7.73943 12.6061 7.89884C12.7668 8.05824 12.8571 8.27444 12.8571 8.49988C12.8571 8.72531 12.7668 8.94151 12.6061 9.10092C12.4453 9.26032 12.2273 9.34988 12 9.34988H6C5.77267 9.34988 5.55466 9.26032 5.39391 9.10092C5.23316 8.94151 5.14286 8.72531 5.14286 8.49988ZM6 11.0499C5.77267 11.0499 5.55466 11.1394 5.39391 11.2988C5.23316 11.4582 5.14286 11.6744 5.14286 11.8999C5.14286 12.1253 5.23316 12.3415 5.39391 12.5009C5.55466 12.6603 5.77267 12.7499 6 12.7499H9.42857C9.6559 12.7499 9.87392 12.6603 10.0347 12.5009C10.1954 12.3415 10.2857 12.1253 10.2857 11.8999C10.2857 11.6744 10.1954 11.4582 10.0347 11.2988C9.87392 11.1394 9.6559 11.0499 9.42857 11.0499H6Z" fill="#CBCBCB"/>
</svg>
