<svg width="24" height="17" viewBox="0 0 24 17" fill="none" xmlns="http://www.w3.org/2000/svg">
<path fill-rule="evenodd" clip-rule="evenodd" d="M8.54533e-07 2.125C8.54533e-07 0.950867 0.960001 0 2.14286 0H21.8571C23.04 0 24 0.952 24 2.125V5.55447C24.0001 5.70377 23.9605 5.85046 23.8853 5.97978C23.8101 6.1091 23.7018 6.21648 23.5714 6.29113C23.18 6.51464 22.8549 6.8365 22.6288 7.22428C22.4027 7.61206 22.2837 8.05208 22.2837 8.5C22.2837 8.94792 22.4027 9.38794 22.6288 9.77572C22.8549 10.1635 23.18 10.4854 23.5714 10.7089C23.7018 10.7835 23.8101 10.8909 23.8853 11.0202C23.9605 11.1495 24.0001 11.2962 24 11.4455V14.875C24 16.048 23.04 17 21.8571 17H2.14286C1.57454 17 1.02949 16.7761 0.627629 16.3776C0.225766 15.9791 8.54533e-07 15.4386 8.54533e-07 14.875V11.4455C-0.000211547 11.2963 0.0391753 11.1497 0.114204 11.0204C0.189232 10.8911 0.297259 10.7837 0.427429 10.7089C0.818865 10.4854 1.14399 10.1635 1.37006 9.77572C1.59614 9.38794 1.71517 8.94792 1.71517 8.5C1.71517 8.05208 1.59614 7.61206 1.37006 7.22428C1.14399 6.8365 0.818865 6.51464 0.427429 6.29113C0.297259 6.21634 0.189232 6.10889 0.114204 5.97958C0.0391753 5.85027 -0.000211547 5.70365 8.54533e-07 5.55447V2.125ZM17.1429 0.85C17.3702 0.85 17.5882 0.939553 17.7489 1.09896C17.9097 1.25837 18 1.47457 18 1.7V2.55C18 2.77543 17.9097 2.99163 17.7489 3.15104C17.5882 3.31045 17.3702 3.4 17.1429 3.4C16.9155 3.4 16.6975 3.31045 16.5368 3.15104C16.376 2.99163 16.2857 2.77543 16.2857 2.55V1.7C16.2857 1.47457 16.376 1.25837 16.5368 1.09896C16.6975 0.939553 16.9155 0.85 17.1429 0.85ZM18 5.95C18 5.72457 17.9097 5.50837 17.7489 5.34896C17.5882 5.18955 17.3702 5.1 17.1429 5.1C16.9155 5.1 16.6975 5.18955 16.5368 5.34896C16.376 5.50837 16.2857 5.72457 16.2857 5.95V6.8C16.2857 7.02543 16.376 7.24163 16.5368 7.40104C16.6975 7.56045 16.9155 7.65 17.1429 7.65C17.3702 7.65 17.5882 7.56045 17.7489 7.40104C17.9097 7.24163 18 7.02543 18 6.8V5.95ZM17.1429 9.35C17.3702 9.35 17.5882 9.43955 17.7489 9.59896C17.9097 9.75837 18 9.97457 18 10.2V11.05C18 11.2754 17.9097 11.4916 17.7489 11.651C17.5882 11.8104 17.3702 11.9 17.1429 11.9C16.9155 11.9 16.6975 11.8104 16.5368 11.651C16.376 11.4916 16.2857 11.2754 16.2857 11.05V10.2C16.2857 9.97457 16.376 9.75837 16.5368 9.59896C16.6975 9.43955 16.9155 9.35 17.1429 9.35ZM18 14.45C18 14.2246 17.9097 14.0084 17.7489 13.849C17.5882 13.6896 17.3702 13.6 17.1429 13.6C16.9155 13.6 16.6975 13.6896 16.5368 13.849C16.376 14.0084 16.2857 14.2246 16.2857 14.45V15.3C16.2857 15.5254 16.376 15.7416 16.5368 15.901C16.6975 16.0604 16.9155 16.15 17.1429 16.15C17.3702 16.15 17.5882 16.0604 17.7489 15.901C17.9097 15.7416 18 15.5254 18 15.3V14.45ZM5.14286 8.5C5.14286 8.27457 5.23316 8.05837 5.39391 7.89896C5.55466 7.73955 5.77267 7.65 6 7.65H12C12.2273 7.65 12.4453 7.73955 12.6061 7.89896C12.7668 8.05837 12.8571 8.27457 12.8571 8.5C12.8571 8.72543 12.7668 8.94163 12.6061 9.10104C12.4453 9.26045 12.2273 9.35 12 9.35H6C5.77267 9.35 5.55466 9.26045 5.39391 9.10104C5.23316 8.94163 5.14286 8.72543 5.14286 8.5ZM6 11.05C5.77267 11.05 5.55466 11.1396 5.39391 11.299C5.23316 11.4584 5.14286 11.6746 5.14286 11.9C5.14286 12.1254 5.23316 12.3416 5.39391 12.501C5.55466 12.6604 5.77267 12.75 6 12.75H9.42857C9.6559 12.75 9.87392 12.6604 10.0347 12.501C10.1954 12.3416 10.2857 12.1254 10.2857 11.9C10.2857 11.6746 10.1954 11.4584 10.0347 11.299C9.87392 11.1396 9.6559 11.05 9.42857 11.05H6Z" fill="url(#paint0_linear_7253_42)"/>
<defs>
<linearGradient id="paint0_linear_7253_42" x1="12" y1="0" x2="12" y2="17" gradientUnits="userSpaceOnUse">
<stop offset="0.21" stop-color="#38B2B2"/>
<stop offset="1" stop-color="#038D8D"/>
</linearGradient>
</defs>
</svg>
